<?xml version="1.0" encoding="UTF-8"?>
<svg xmlns="http://www.w3.org/2000/svg" xmlns:xlink="http://www.w3.org/1999/xlink" width="24" height="24" viewBox="0 0 24 24" version="1.1">
<g id="surface1">
<path style=" stroke:none;fill-rule:nonzero;fill:rgb(0%,0%,0%);fill-opacity:1;" d="M 12 21 C 9.5 21 7.375 20.125 5.625 18.375 C 3.875 16.625 3 14.5 3 12 C 3 9.5 3.875 7.375 5.625 5.625 C 7.375 3.875 9.5 3 12 3 C 12.132812 3 12.273438 3.003906 12.425781 3.011719 C 12.574219 3.019531 12.765625 3.035156 13 3.050781 C 12.398438 3.582031 11.933594 4.242188 11.601562 5.023438 C 11.265625 5.808594 11.101562 6.632812 11.101562 7.5 C 11.101562 9 11.625 10.273438 12.675781 11.324219 C 13.726562 12.375 15 12.898438 16.5 12.898438 C 17.367188 12.898438 18.191406 12.746094 18.976562 12.4375 C 19.757812 12.128906 20.417969 11.699219 20.949219 11.148438 C 20.964844 11.351562 20.980469 11.511719 20.988281 11.636719 C 20.996094 11.761719 21 11.882812 21 12 C 21 14.5 20.125 16.625 18.375 18.375 C 16.625 20.125 14.5 21 12 21 Z M 12 19.5 C 13.816406 19.5 15.398438 18.9375 16.75 17.8125 C 18.101562 16.6875 18.941406 15.367188 19.273438 13.851562 C 18.859375 14.035156 18.410156 14.171875 17.933594 14.261719 C 17.457031 14.355469 16.976562 14.398438 16.5 14.398438 C 14.589844 14.398438 12.960938 13.726562 11.617188 12.382812 C 10.273438 11.039062 9.601562 9.410156 9.601562 7.5 C 9.601562 7.101562 9.640625 6.671875 9.726562 6.210938 C 9.808594 5.753906 9.957031 5.234375 10.175781 4.648438 C 8.542969 5.101562 7.1875 6.011719 6.113281 7.386719 C 5.039062 8.761719 4.5 10.300781 4.5 12 C 4.5 14.082031 5.230469 15.855469 6.6875 17.3125 C 8.144531 18.769531 9.917969 19.5 12 19.5 Z M 11.898438 12.074219 Z M 11.898438 12.074219 "/>
</g>
</svg>
