<?xml version="1.0" encoding="UTF-8"?>
<svg xmlns="http://www.w3.org/2000/svg" xmlns:xlink="http://www.w3.org/1999/xlink" width="24" height="24" viewBox="0 0 24 24" version="1.1">
<g id="surface1">
<path style=" stroke:none;fill-rule:nonzero;fill:rgb(0%,0%,0%);fill-opacity:1;" d="M 11.992188 15.5 C 12.964844 15.5 13.792969 15.160156 14.476562 14.480469 C 15.160156 13.800781 15.5 12.976562 15.5 12.007812 C 15.5 11.035156 15.160156 10.207031 14.480469 9.523438 C 13.800781 8.839844 12.976562 8.5 12.007812 8.5 C 11.035156 8.5 10.207031 8.839844 9.523438 9.519531 C 8.839844 10.199219 8.5 11.023438 8.5 11.992188 C 8.5 12.964844 8.839844 13.792969 9.519531 14.476562 C 10.199219 15.160156 11.023438 15.5 11.992188 15.5 Z M 12 17 C 10.617188 17 9.4375 16.511719 8.460938 15.539062 C 7.488281 14.5625 7 13.382812 7 12 C 7 10.617188 7.488281 9.4375 8.460938 8.460938 C 9.4375 7.488281 10.617188 7 12 7 C 13.382812 7 14.5625 7.488281 15.539062 8.460938 C 16.511719 9.4375 17 10.617188 17 12 C 17 13.382812 16.511719 14.5625 15.539062 15.539062 C 14.5625 16.511719 13.382812 17 12 17 Z M 1.75 12.75 C 1.539062 12.75 1.359375 12.675781 1.214844 12.53125 C 1.070312 12.386719 1 12.210938 1 11.996094 C 1 11.78125 1.070312 11.605469 1.214844 11.460938 C 1.359375 11.320312 1.539062 11.25 1.75 11.25 L 4.25 11.25 C 4.460938 11.25 4.640625 11.324219 4.785156 11.46875 C 4.929688 11.613281 5 11.789062 5 12.003906 C 5 12.21875 4.929688 12.394531 4.785156 12.539062 C 4.640625 12.679688 4.460938 12.75 4.25 12.75 Z M 19.75 12.75 C 19.539062 12.75 19.359375 12.675781 19.214844 12.53125 C 19.070312 12.386719 19 12.210938 19 11.996094 C 19 11.78125 19.070312 11.605469 19.214844 11.460938 C 19.359375 11.320312 19.539062 11.25 19.75 11.25 L 22.25 11.25 C 22.460938 11.25 22.640625 11.324219 22.785156 11.46875 C 22.929688 11.613281 23 11.789062 23 12.003906 C 23 12.21875 22.929688 12.394531 22.785156 12.539062 C 22.640625 12.679688 22.460938 12.75 22.25 12.75 Z M 11.996094 5 C 11.78125 5 11.605469 4.929688 11.460938 4.785156 C 11.320312 4.640625 11.25 4.460938 11.25 4.25 L 11.25 1.75 C 11.25 1.539062 11.324219 1.359375 11.46875 1.214844 C 11.613281 1.070312 11.789062 1 12.003906 1 C 12.21875 1 12.394531 1.070312 12.539062 1.214844 C 12.679688 1.359375 12.75 1.539062 12.75 1.75 L 12.75 4.25 C 12.75 4.460938 12.675781 4.640625 12.53125 4.785156 C 12.386719 4.929688 12.210938 5 11.996094 5 Z M 11.996094 23 C 11.78125 23 11.605469 22.929688 11.460938 22.785156 C 11.320312 22.640625 11.25 22.460938 11.25 22.25 L 11.25 19.75 C 11.25 19.539062 11.324219 19.359375 11.46875 19.214844 C 11.613281 19.070312 11.789062 19 12.003906 19 C 12.21875 19 12.394531 19.070312 12.539062 19.214844 C 12.679688 19.359375 12.75 19.539062 12.75 19.75 L 12.75 22.25 C 12.75 22.460938 12.675781 22.640625 12.53125 22.785156 C 12.386719 22.929688 12.210938 23 11.996094 23 Z M 6 7.050781 L 4.574219 5.648438 C 4.425781 5.5 4.351562 5.320312 4.359375 5.109375 C 4.367188 4.898438 4.4375 4.71875 4.574219 4.574219 C 4.71875 4.425781 4.898438 4.351562 5.109375 4.351562 C 5.320312 4.351562 5.5 4.425781 5.648438 4.574219 L 7.050781 6 C 7.183594 6.148438 7.25 6.324219 7.25 6.523438 C 7.25 6.726562 7.183594 6.894531 7.050781 7.039062 C 6.917969 7.179688 6.746094 7.25 6.539062 7.25 C 6.328125 7.25 6.148438 7.183594 6 7.050781 Z M 18.351562 19.425781 L 16.949219 18 C 16.816406 17.851562 16.75 17.671875 16.75 17.464844 C 16.75 17.257812 16.820312 17.085938 16.960938 16.949219 C 17.105469 16.800781 17.273438 16.726562 17.476562 16.726562 C 17.675781 16.726562 17.851562 16.800781 18 16.949219 L 19.425781 18.351562 C 19.574219 18.5 19.648438 18.679688 19.640625 18.890625 C 19.632812 19.101562 19.5625 19.28125 19.425781 19.425781 C 19.28125 19.574219 19.101562 19.648438 18.890625 19.648438 C 18.679688 19.648438 18.5 19.574219 18.351562 19.425781 Z M 16.949219 7.050781 C 16.800781 6.898438 16.726562 6.726562 16.726562 6.523438 C 16.726562 6.324219 16.800781 6.148438 16.949219 6 L 18.351562 4.574219 C 18.5 4.425781 18.679688 4.351562 18.890625 4.359375 C 19.101562 4.367188 19.28125 4.4375 19.425781 4.574219 C 19.574219 4.71875 19.648438 4.898438 19.648438 5.109375 C 19.648438 5.320312 19.574219 5.5 19.425781 5.648438 L 18 7.050781 C 17.867188 7.183594 17.695312 7.25 17.492188 7.25 C 17.285156 7.25 17.105469 7.183594 16.949219 7.050781 Z M 4.574219 19.425781 C 4.425781 19.28125 4.351562 19.101562 4.351562 18.890625 C 4.351562 18.679688 4.425781 18.5 4.574219 18.351562 L 6 16.949219 C 6.148438 16.800781 6.320312 16.726562 6.523438 16.726562 C 6.722656 16.726562 6.898438 16.800781 7.039062 16.949219 C 7.195312 17.101562 7.273438 17.273438 7.273438 17.476562 C 7.273438 17.675781 7.199219 17.851562 7.050781 18 L 5.648438 19.425781 C 5.5 19.574219 5.320312 19.648438 5.109375 19.640625 C 4.898438 19.632812 4.71875 19.5625 4.574219 19.425781 Z M 12 12 Z M 12 12 "/>
</g>
</svg>
